<svg width="30" height="30" viewBox="0 0 30 30" fill="none" xmlns="http://www.w3.org/2000/svg">
<circle cx="15" cy="15" r="15" fill="#83BFB3"/>
<path d="M17.75 10V9.4C17.75 8.55992 17.75 8.13988 17.5865 7.81902C17.4427 7.53677 17.2132 7.3073 16.931 7.16349C16.6102 7 16.1901 7 15.35 7H14.15C13.3099 7 12.8899 7 12.569 7.16349C12.2868 7.3073 12.0573 7.53677 11.9135 7.81902C11.75 8.13988 11.75 8.55992 11.75 9.4V10M8 10H21.5M20 10V18.4C20 19.6602 20 20.2901 19.7548 20.7715C19.5391 21.1949 19.1949 21.5391 18.7715 21.7548C18.2902 22 17.6602 22 16.4 22H13.1C11.8399 22 11.2098 22 10.7285 21.7548C10.3052 21.5391 9.96095 21.1949 9.74524 20.7715C9.5 20.2901 9.5 19.6602 9.5 18.4V10" stroke="white" stroke-linecap="round" stroke-linejoin="round"/>
</svg>
