<svg width="60" height="60" viewBox="0 0 60 60" fill="none" xmlns="http://www.w3.org/2000/svg">
<circle cx="30" cy="30" r="30" fill="#83BFB3"/>
<path d="M38.3333 15H21.6667C17.9848 15 15 17.9848 15 21.6667V38.3333C15 42.0152 17.9848 45 21.6667 45H38.3333C42.0152 45 45 42.0152 45 38.3333V21.6667C45 17.9848 42.0152 15 38.3333 15Z" fill="white"/>
<path d="M30 36.6668C33.6819 36.6668 36.6666 33.6821 36.6666 30.0002C36.6666 26.3182 33.6819 23.3335 30 23.3335C26.3181 23.3335 23.3333 26.3182 23.3333 30.0002C23.3333 33.6821 26.3181 36.6668 30 36.6668Z" stroke="#83BFB3" stroke-width="3" stroke-linejoin="round"/>
<path d="M39.1667 22.5003C40.0872 22.5003 40.8333 21.7542 40.8333 20.8337C40.8333 19.9132 40.0872 19.167 39.1667 19.167C38.2462 19.167 37.5 19.9132 37.5 20.8337C37.5 21.7542 38.2462 22.5003 39.1667 22.5003Z" fill="#83BFB3"/>
</svg>
