<svg width="60" height="60" viewBox="0 0 60 60" fill="none" xmlns="http://www.w3.org/2000/svg">
<circle cx="30" cy="30" r="30" fill="#83BFB3"/>
<path d="M25.3744 44.6C25.3744 43.8205 25.3715 43.065 25.3744 42.3094C25.3881 38.9898 25.4071 35.6697 25.4174 32.3501C25.4228 30.6412 25.4184 28.9323 25.411 27.2234C25.4086 26.6789 25.3871 26.1338 25.3666 25.5897C25.3597 25.4081 25.4076 25.3324 25.6108 25.3333C27.5722 25.3407 29.5336 25.3377 31.495 25.3387C31.5672 25.3387 31.639 25.3485 31.7367 25.3553V28.0625C31.7553 28.0708 31.7738 28.0786 31.7924 28.0869C31.87 27.9824 31.9506 27.8803 32.0244 27.7729C33.0715 26.2422 34.4722 25.2601 36.332 24.9817C37.6238 24.7883 38.8936 24.8728 40.1376 25.2742C42.244 25.9541 43.5822 27.4158 44.3265 29.4544C44.7392 30.585 44.9317 31.7596 44.9365 32.9674C44.9522 36.7896 44.9781 40.6123 45 44.4344C45 44.4828 45 44.5306 45 44.6029H38.6402C38.6367 44.5624 38.6294 44.517 38.6294 44.4715C38.6284 41.1348 38.6387 37.7981 38.6211 34.4614C38.6162 33.512 38.5469 32.5606 38.1498 31.6702C37.5579 30.3438 36.3638 29.7748 34.9762 29.9223C33.4012 30.0898 32.4693 31.0329 31.9257 32.4395C31.8427 32.6544 31.8026 32.899 31.7997 33.1305C31.7763 35.1637 31.7611 37.1974 31.7528 39.2306C31.746 40.9395 31.7509 42.6489 31.7509 44.3577C31.7509 44.43 31.7509 44.5023 31.7509 44.5995H25.3744V44.6Z" fill="white"/>
<path d="M21.731 25.3691V44.6202H15.4077V25.3691H21.731Z" fill="white"/>
<path d="M18.5486 22.6559C17.3481 22.6007 16.3127 22.2335 15.5967 21.2283C14.5926 19.8193 14.8514 17.6137 16.406 16.6086C17.2065 16.0904 18.09 15.9454 19.0204 16.0172C19.8838 16.0841 20.6575 16.3776 21.2626 17.0145C22.1637 17.9629 22.3683 19.1072 22.0181 20.3229C21.686 21.476 20.8543 22.1763 19.6978 22.4708C19.3232 22.5661 18.932 22.5954 18.5486 22.6549V22.6559Z" fill="white"/>
</svg>
