<svg width="22" height="22" viewBox="0 0 22 22" fill="none" xmlns="http://www.w3.org/2000/svg">
<path d="M19.4211 1H2.57895C1.70692 1 1 1.70692 1 2.57895V19.4211C1 20.2931 1.70692 21 2.57895 21H19.4211C20.2931 21 21 20.2931 21 19.4211V2.57895C21 1.70692 20.2931 1 19.4211 1Z" stroke="#83BFB3" stroke-width="2"/>
<path d="M8.36849 4.68408H4.15796V17.3157H8.36849V4.68408Z" stroke="#83BFB3" stroke-width="2" stroke-linecap="round" stroke-linejoin="round"/>
<path d="M17.8422 4.68408H11.5264V7.84198H17.8422V4.68408Z" stroke="#83BFB3" stroke-width="2" stroke-linecap="round" stroke-linejoin="round"/>
<path d="M11.5263 12.052C12.1076 12.052 12.5789 11.5808 12.5789 10.9994C12.5789 10.4181 12.1076 9.94678 11.5263 9.94678C10.9449 9.94678 10.4736 10.4181 10.4736 10.9994C10.4736 11.5808 10.9449 12.052 11.5263 12.052Z" fill="#83BFB3"/>
<path d="M11.5263 15.2102C12.1076 15.2102 12.5789 14.739 12.5789 14.1576C12.5789 13.5763 12.1076 13.105 11.5263 13.105C10.9449 13.105 10.4736 13.5763 10.4736 14.1576C10.4736 14.739 10.9449 15.2102 11.5263 15.2102Z" fill="#83BFB3"/>
<path d="M11.5263 18.368C12.1076 18.368 12.5789 17.8967 12.5789 17.3153C12.5789 16.734 12.1076 16.2627 11.5263 16.2627C10.9449 16.2627 10.4736 16.734 10.4736 17.3153C10.4736 17.8967 10.9449 18.368 11.5263 18.368Z" fill="#83BFB3"/>
<path d="M14.6842 12.052C15.2656 12.052 15.7369 11.5808 15.7369 10.9994C15.7369 10.4181 15.2656 9.94678 14.6842 9.94678C14.1029 9.94678 13.6316 10.4181 13.6316 10.9994C13.6316 11.5808 14.1029 12.052 14.6842 12.052Z" fill="#83BFB3"/>
<path d="M14.6842 15.2102C15.2656 15.2102 15.7369 14.739 15.7369 14.1576C15.7369 13.5763 15.2656 13.105 14.6842 13.105C14.1029 13.105 13.6316 13.5763 13.6316 14.1576C13.6316 14.739 14.1029 15.2102 14.6842 15.2102Z" fill="#83BFB3"/>
<path d="M14.6842 18.368C15.2656 18.368 15.7369 17.8967 15.7369 17.3153C15.7369 16.734 15.2656 16.2627 14.6842 16.2627C14.1029 16.2627 13.6316 16.734 13.6316 17.3153C13.6316 17.8967 14.1029 18.368 14.6842 18.368Z" fill="#83BFB3"/>
<path d="M17.8422 12.052C18.4235 12.052 18.8948 11.5808 18.8948 10.9994C18.8948 10.4181 18.4235 9.94678 17.8422 9.94678C17.2608 9.94678 16.7896 10.4181 16.7896 10.9994C16.7896 11.5808 17.2608 12.052 17.8422 12.052Z" fill="#83BFB3"/>
<path d="M17.8422 15.2102C18.4235 15.2102 18.8948 14.739 18.8948 14.1576C18.8948 13.5763 18.4235 13.105 17.8422 13.105C17.2608 13.105 16.7896 13.5763 16.7896 14.1576C16.7896 14.739 17.2608 15.2102 17.8422 15.2102Z" fill="#83BFB3"/>
<path d="M17.8422 18.368C18.4235 18.368 18.8948 17.8967 18.8948 17.3153C18.8948 16.734 18.4235 16.2627 17.8422 16.2627C17.2608 16.2627 16.7896 16.734 16.7896 17.3153C16.7896 17.8967 17.2608 18.368 17.8422 18.368Z" fill="#83BFB3"/>
</svg>
