<svg width="60" height="60" viewBox="0 0 60 60" fill="none" xmlns="http://www.w3.org/2000/svg">
<circle cx="30" cy="30" r="30" fill="#83BFB3"/>
<path d="M15 39.707C16.5228 40.5489 27.5458 46.9031 35.3841 42.0058C43.2223 37.1084 42.7899 28.671 42.7899 24.8047C43.5 23.3172 45 22.561 45 18.5346C43.5266 19.8956 42.0621 20.3587 40.6066 19.9239C39.1806 17.7497 37.2186 16.788 34.7206 17.039C30.9737 17.4154 29.6028 21.0914 30.0062 25.8474C24.2289 28.769 19.6986 23.7295 17.3638 19.9239C16.5837 22.921 15.8316 26.5192 17.3638 30.4996C18.3853 33.1532 20.8409 35.3966 24.7306 37.2299C20.7887 39.3664 17.5451 40.1921 15 39.707Z" fill="white"/>
</svg>
