<svg width="28" height="23" viewBox="0 0 28 23" fill="none" xmlns="http://www.w3.org/2000/svg">
<path d="M1 21.0908V19.909C1 15.34 4.70383 11.6362 9.27273 11.6362C13.8416 11.6362 17.5455 15.34 17.5455 19.909V21.0908" stroke="#D9D9D9" stroke-width="2" stroke-linecap="round"/>
<path d="M15.1819 13.9999C15.1819 10.7364 17.8275 8.09082 21.091 8.09082C24.3544 8.09082 27.0001 10.7364 27.0001 13.9999V14.5908" stroke="#D9D9D9" stroke-width="2" stroke-linecap="round"/>
<path d="M9.27268 11.6362C11.8834 11.6362 14 9.51967 14 6.90891C14 4.29811 11.8834 2.18164 9.27268 2.18164C6.66188 2.18164 4.54541 4.29811 4.54541 6.90891C4.54541 9.51967 6.66188 11.6362 9.27268 11.6362Z" stroke="#D9D9D9" stroke-width="2" stroke-linecap="round" stroke-linejoin="round"/>
<path d="M21.0909 8.09091C23.049 8.09091 24.6363 6.50355 24.6363 4.54545C24.6363 2.58736 23.049 1 21.0909 1C19.1327 1 17.5454 2.58736 17.5454 4.54545C17.5454 6.50355 19.1327 8.09091 21.0909 8.09091Z" stroke="#D9D9D9" stroke-width="2" stroke-linecap="round" stroke-linejoin="round"/>
</svg>
