<svg width="26" height="28" viewBox="0 0 26 28" fill="none" xmlns="http://www.w3.org/2000/svg">
<path d="M21.8 14V5.87309C21.8 5.66622 21.7178 5.46783 21.5716 5.32154L17.4784 1.22846C17.3322 1.08217 17.1338 1 16.9269 1H1.78C1.34922 1 1 1.34922 1 1.78V26.22C1 26.6508 1.34922 27 1.78 27H10.1" stroke="#D9D9D9" stroke-width="2" stroke-linecap="round" stroke-linejoin="round"/>
<path d="M6.19995 11.4002H16.6M6.19995 6.2002H11.4M6.19995 16.6002H10.1" stroke="#D9D9D9" stroke-width="2" stroke-linecap="round" stroke-linejoin="round"/>
<path d="M22.45 25.0498L24.4 26.9998" stroke="#D9D9D9" stroke-width="2" stroke-linecap="round" stroke-linejoin="round"/>
<path d="M15.3 21.7999C15.3 23.9539 17.0461 25.6999 19.2 25.6999C20.2789 25.6999 21.2553 25.2618 21.9614 24.554C22.6651 23.8484 23.1 22.875 23.1 21.7999C23.1 19.6459 21.354 17.8999 19.2 17.8999C17.0461 17.8999 15.3 19.6459 15.3 21.7999Z" stroke="#D9D9D9" stroke-width="2" stroke-linecap="round" stroke-linejoin="round"/>
<path d="M16.6001 1V5.42C16.6001 5.85078 16.9493 6.2 17.3801 6.2H21.8001" stroke="#D9D9D9" stroke-width="2" stroke-linecap="round" stroke-linejoin="round"/>
</svg>
