<svg width="28" height="28" viewBox="0 0 28 28" fill="none" xmlns="http://www.w3.org/2000/svg">
<path d="M6.77783 9.68109L6.79228 9.66504" stroke="#D9D9D9" stroke-width="2" stroke-linecap="round" stroke-linejoin="round"/>
<path d="M12.5555 9.68109L12.57 9.66504" stroke="#D9D9D9" stroke-width="2" stroke-linecap="round" stroke-linejoin="round"/>
<path d="M6.77783 15.4589L6.79228 15.4429" stroke="#D9D9D9" stroke-width="2" stroke-linecap="round" stroke-linejoin="round"/>
<path d="M12.5555 15.4589L12.57 15.4429" stroke="#D9D9D9" stroke-width="2" stroke-linecap="round" stroke-linejoin="round"/>
<path d="M6.77783 21.2367L6.79228 21.2207" stroke="#D9D9D9" stroke-width="2" stroke-linecap="round" stroke-linejoin="round"/>
<path d="M12.5555 21.2367L12.57 21.2207" stroke="#D9D9D9" stroke-width="2" stroke-linecap="round" stroke-linejoin="round"/>
<path d="M18.3333 27H1.86667C1.38802 27 1 26.612 1 26.1333V4.75556C1 4.27691 1.38802 3.88889 1.86667 3.88889H9.66667V1.86667C9.66667 1.38802 10.0547 1 10.5333 1H17.4667C17.9454 1 18.3333 1.38802 18.3333 1.86667V9.66667M18.3333 27H26.1333C26.612 27 27 26.612 27 26.1333V10.5333C27 10.0547 26.612 9.66667 26.1333 9.66667H18.3333M18.3333 27V21.2222M18.3333 9.66667V15.4444M18.3333 21.2222V15.4444M18.3333 21.2222H21.2222M18.3333 15.4444H21.2222" stroke="#D9D9D9" stroke-width="2" stroke-linecap="round" stroke-linejoin="round"/>
</svg>
