<svg width="60" height="60" viewBox="0 0 60 60" fill="none" xmlns="http://www.w3.org/2000/svg">
<circle cx="30" cy="30" r="29.5" fill="white" stroke="#DBDBDB"/>
<path d="M23.9223 30.4818L38.6296 17.6128C38.6296 17.6128 40.0084 16.234 41.3872 17.6128C42.766 18.9916 41.3872 20.3704 41.3872 20.3704L28.5183 35.0778L23.9223 30.4818Z" stroke="#DBDBDB" stroke-width="2" stroke-linejoin="round"/>
<path d="M28.0593 27.2644L31.7361 30.9413" stroke="#DBDBDB" stroke-width="2" stroke-linecap="round" stroke-linejoin="round"/>
<path d="M17.0287 33.6987L23.9228 30.4814L28.5189 35.0775L25.3016 41.9716C25.3016 41.9716 22.0844 42.4312 19.3267 39.6736C16.5691 36.9159 17.0287 33.6987 17.0287 33.6987Z" stroke="#DBDBDB" stroke-width="2" stroke-linejoin="round"/>
<path d="M17.9481 37.3756L21.1654 35.9968" stroke="#DBDBDB" stroke-width="2" stroke-linecap="round" stroke-linejoin="round"/>
<path d="M21.6254 41.0525L22.5446 39.2141" stroke="#DBDBDB" stroke-width="2" stroke-linecap="round" stroke-linejoin="round"/>
<path d="M25.7617 28.873L27.6001 27.2644L29.4386 25.6558" stroke="#DBDBDB" stroke-width="2" stroke-linejoin="round"/>
<path d="M33.3447 29.5623L31.7361 31.4007L30.1275 33.2391" stroke="#DBDBDB" stroke-width="2" stroke-linejoin="round"/>
</svg>
