<svg width="60" height="60" viewBox="0 0 60 60" fill="none" xmlns="http://www.w3.org/2000/svg">
<circle cx="30" cy="30" r="29.5" fill="white" stroke="#DBDBDB"/>
<path d="M39.2223 33.2778H19.7778C18.2437 33.2778 17 34.5215 17 36.0556V40.2223C17 41.7564 18.2437 43.0001 19.7778 43.0001H39.2223C40.7564 43.0001 42.0001 41.7564 42.0001 40.2223V36.0556C42.0001 34.5215 40.7564 33.2778 39.2223 33.2778Z" stroke="#DBDBDB" stroke-width="2"/>
<path d="M26.7222 18.6943H19.7778C18.2437 18.6943 17 19.938 17 21.4721V25.6388C17 27.1729 18.2437 28.4166 19.7778 28.4166H26.7222" stroke="#DBDBDB" stroke-width="2" stroke-linecap="round"/>
<path d="M36.4445 29.1111C39.5127 29.1111 42 26.6238 42 23.5556C42 20.4873 39.5127 18 36.4445 18C33.3762 18 30.8889 20.4873 30.8889 23.5556C30.8889 26.6238 33.3762 29.1111 36.4445 29.1111Z" stroke="#DBDBDB" stroke-width="2"/>
<path d="M36.4445 25.6391C37.5951 25.6391 38.5279 24.7063 38.5279 23.5558C38.5279 22.4052 37.5951 21.4724 36.4445 21.4724C35.2939 21.4724 34.3612 22.4052 34.3612 23.5558C34.3612 24.7063 35.2939 25.6391 36.4445 25.6391Z" fill="#DBDBDB"/>
</svg>
