<svg width="60" height="60" viewBox="0 0 60 60" fill="none" xmlns="http://www.w3.org/2000/svg">
<circle cx="30" cy="30" r="29.5" fill="white" stroke="#DBDBDB"/>
<path d="M38.75 18H21.25C20.5596 18 20 18.5596 20 19.25V41.75C20 42.4404 20.5596 43 21.25 43H38.75C39.4404 43 40 42.4404 40 41.75V19.25C40 18.5596 39.4404 18 38.75 18Z" stroke="#DBDBDB" stroke-width="2" stroke-linecap="round" stroke-linejoin="round"/>
<path d="M36.25 22.375H23.75V28H36.25V22.375Z" stroke="#DBDBDB" stroke-width="2" stroke-linecap="round" stroke-linejoin="round"/>
<path d="M25.625 33C26.3154 33 26.875 32.4404 26.875 31.75C26.875 31.0596 26.3154 30.5 25.625 30.5C24.9347 30.5 24.375 31.0596 24.375 31.75C24.375 32.4404 24.9347 33 25.625 33Z" fill="#DBDBDB"/>
<path d="M25.625 36.75C26.3154 36.75 26.875 36.1904 26.875 35.5C26.875 34.8096 26.3154 34.25 25.625 34.25C24.9347 34.25 24.375 34.8096 24.375 35.5C24.375 36.1904 24.9347 36.75 25.625 36.75Z" fill="#DBDBDB"/>
<path d="M25.625 40.5C26.3154 40.5 26.875 39.9404 26.875 39.25C26.875 38.5596 26.3154 38 25.625 38C24.9347 38 24.375 38.5596 24.375 39.25C24.375 39.9404 24.9347 40.5 25.625 40.5Z" fill="#DBDBDB"/>
<path d="M30.0001 33C30.6904 33 31.2501 32.4404 31.2501 31.75C31.2501 31.0596 30.6904 30.5 30.0001 30.5C29.3097 30.5 28.7501 31.0596 28.7501 31.75C28.7501 32.4404 29.3097 33 30.0001 33Z" fill="#DBDBDB"/>
<path d="M30.0001 36.75C30.6904 36.75 31.2501 36.1904 31.2501 35.5C31.2501 34.8096 30.6904 34.25 30.0001 34.25C29.3097 34.25 28.7501 34.8096 28.7501 35.5C28.7501 36.1904 29.3097 36.75 30.0001 36.75Z" fill="#DBDBDB"/>
<path d="M30.0001 40.5C30.6904 40.5 31.2501 39.9404 31.2501 39.25C31.2501 38.5596 30.6904 38 30.0001 38C29.3097 38 28.7501 38.5596 28.7501 39.25C28.7501 39.9404 29.3097 40.5 30.0001 40.5Z" fill="#DBDBDB"/>
<path d="M34.375 33C35.0654 33 35.625 32.4404 35.625 31.75C35.625 31.0596 35.0654 30.5 34.375 30.5C33.6846 30.5 33.125 31.0596 33.125 31.75C33.125 32.4404 33.6846 33 34.375 33Z" fill="#DBDBDB"/>
<path d="M34.375 36.75C35.0654 36.75 35.625 36.1904 35.625 35.5C35.625 34.8096 35.0654 34.25 34.375 34.25C33.6846 34.25 33.125 34.8096 33.125 35.5C33.125 36.1904 33.6846 36.75 34.375 36.75Z" fill="#DBDBDB"/>
<path d="M34.375 40.5C35.0654 40.5 35.625 39.9404 35.625 39.25C35.625 38.5596 35.0654 38 34.375 38C33.6846 38 33.125 38.5596 33.125 39.25C33.125 39.9404 33.6846 40.5 34.375 40.5Z" fill="#DBDBDB"/>
</svg>
