<svg width="11" height="15" viewBox="0 0 11 15" fill="none" xmlns="http://www.w3.org/2000/svg">
<path d="M3.3 12.05H7.5M1.62 0.5H9.18C9.57207 0.5 9.76807 0.5 9.9178 0.576293C10.0495 0.643409 10.1566 0.750495 10.2237 0.882207C10.3 1.03194 10.3 1.22796 10.3 1.62V3.07216C10.3 3.41459 10.3 3.5858 10.2613 3.74692C10.227 3.88978 10.1704 4.02634 10.0937 4.1516C10.0071 4.29288 9.88602 4.41395 9.64389 4.65608L7.59198 6.70802C7.31478 6.98522 7.17611 7.12389 7.12424 7.2837C7.07853 7.42426 7.07853 7.57574 7.12424 7.7163C7.17611 7.87611 7.31478 8.01478 7.59198 8.29198L9.64389 10.3439C9.88602 10.586 10.0071 10.7071 10.0937 10.8484C10.1704 10.9737 10.227 11.1102 10.2613 11.253C10.3 11.4142 10.3 11.5854 10.3 11.9279V13.38C10.3 13.7721 10.3 13.9681 10.2237 14.1178C10.1566 14.2495 10.0495 14.3566 9.9178 14.4237C9.76807 14.5 9.57207 14.5 9.18 14.5H1.62C1.22796 14.5 1.03194 14.5 0.882207 14.4237C0.750495 14.3566 0.643409 14.2495 0.576293 14.1178C0.5 13.9681 0.5 13.7721 0.5 13.38V11.9279C0.5 11.5854 0.5 11.4142 0.538682 11.253C0.572975 11.1102 0.629542 10.9737 0.706304 10.8484C0.79288 10.7071 0.913945 10.586 1.15608 10.3439L3.20804 8.29198C3.48526 8.01478 3.62386 7.87611 3.67579 7.7163C3.72147 7.57574 3.72147 7.42426 3.67579 7.2837C3.62386 7.12389 3.48525 6.98522 3.20804 6.70802L1.15608 4.65608C0.913952 4.41395 0.79288 4.29288 0.706304 4.1516C0.629542 4.02634 0.572975 3.88978 0.538682 3.74692C0.5 3.5858 0.5 3.41459 0.5 3.07216V1.62C0.5 1.22796 0.5 1.03194 0.576293 0.882207C0.643409 0.750495 0.750495 0.643409 0.882207 0.576293C1.03194 0.5 1.22796 0.5 1.62 0.5Z" stroke="#83BFB3" stroke-linecap="round" stroke-linejoin="round"/>
</svg>
