<svg width="15" height="14" viewBox="0 0 15 14" fill="none" xmlns="http://www.w3.org/2000/svg">
<path d="M4.7 13.1V3.3C4.7 2.64902 4.7 2.32353 4.77155 2.05648C4.96573 1.33179 5.53179 0.765734 6.25645 0.571554C6.5235 0.5 6.849 0.5 7.5 0.5C8.151 0.5 8.4765 0.5 8.74355 0.571554C9.46819 0.765734 10.0343 1.33179 10.2285 2.05648C10.3 2.32353 10.3 2.64902 10.3 3.3V13.1M2.74 13.1H12.26C13.0441 13.1 13.4361 13.1 13.7356 12.9474C13.999 12.8132 14.2132 12.599 14.3474 12.3356C14.5 12.0361 14.5 11.6441 14.5 10.86V5.54C14.5 4.75592 14.5 4.36389 14.3474 4.06441C14.2132 3.80098 13.999 3.58681 13.7356 3.45259C13.4361 3.3 13.0441 3.3 12.26 3.3H2.74C1.95592 3.3 1.56389 3.3 1.26441 3.45259C1.00098 3.58681 0.786811 3.80098 0.652593 4.06441C0.5 4.36389 0.5 4.75592 0.5 5.54V10.86C0.5 11.6441 0.5 12.0361 0.652593 12.3356C0.786811 12.599 1.00098 12.8132 1.26441 12.9474C1.56389 13.1 1.95593 13.1 2.74 13.1Z" stroke="#83BFB3" stroke-linecap="round" stroke-linejoin="round"/>
</svg>
