<svg width="36" height="183" viewBox="0 0 36 183" fill="none" xmlns="http://www.w3.org/2000/svg">
<g style="mix-blend-mode:multiply">
<path d="M28.97 25.3702C28.97 23.5102 30.49 21.9902 32.35 21.9902C34.21 21.9902 35.73 23.5102 35.73 25.3702C35.73 27.2302 34.21 28.7502 32.35 28.7502C30.49 28.7502 28.97 27.2302 28.97 25.3702ZM34.87 25.3702C34.87 23.9802 33.74 22.8502 32.35 22.8502C30.96 22.8502 29.83 23.9802 29.83 25.3702C29.83 26.7602 30.96 27.8902 32.35 27.8902C33.74 27.8902 34.87 26.7602 34.87 25.3702Z" fill="#83BFB3"/>
</g>
<g style="mix-blend-mode:multiply">
<path d="M28.97 69.34C28.97 67.47 30.49 65.96 32.35 65.96C34.21 65.96 35.73 67.48 35.73 69.34C35.73 71.2 34.21 72.72 32.35 72.72C30.49 72.72 28.97 71.2 28.97 69.34ZM34.87 69.34C34.87 67.95 33.74 66.82 32.35 66.82C30.96 66.82 29.83 67.95 29.83 69.34C29.83 70.73 30.96 71.86 32.35 71.86C33.74 71.86 34.87 70.73 34.87 69.34Z" fill="#83BFB3"/>
</g>
<g style="mix-blend-mode:multiply">
<path d="M28.97 113.32C28.97 111.45 30.49 109.94 32.35 109.94C34.21 109.94 35.73 111.46 35.73 113.32C35.73 115.18 34.21 116.7 32.35 116.7C30.49 116.7 28.97 115.18 28.97 113.32ZM34.87 113.32C34.87 111.93 33.74 110.8 32.35 110.8C30.96 110.8 29.83 111.93 29.83 113.32C29.83 114.71 30.96 115.84 32.35 115.84C33.74 115.84 34.87 114.71 34.87 113.32Z" fill="#83BFB3"/>
</g>
<g style="mix-blend-mode:multiply">
<path d="M28.97 179.28C28.97 177.41 30.49 175.9 32.35 175.9C34.21 175.9 35.73 177.42 35.73 179.28C35.73 181.14 34.21 182.66 32.35 182.66C30.49 182.66 28.97 181.14 28.97 179.28ZM34.87 179.28C34.87 177.89 33.74 176.76 32.35 176.76C30.96 176.76 29.83 177.89 29.83 179.28C29.83 180.67 30.96 181.8 32.35 181.8C33.74 181.8 34.87 180.67 34.87 179.28Z" fill="#83BFB3"/>
</g>
<g style="mix-blend-mode:multiply">
<path d="M28.97 3.38C28.97 1.51 30.49 0 32.35 0C34.21 0 35.73 1.52 35.73 3.38C35.73 5.24 34.21 6.76 32.35 6.76C30.49 6.76 28.97 5.24 28.97 3.38ZM34.87 3.38C34.87 1.99 33.74 0.86 32.35 0.86C30.96 0.86 29.83 1.99 29.83 3.38C29.83 4.77 30.96 5.9 32.35 5.9C33.74 5.9 34.87 4.77 34.87 3.38Z" fill="#83BFB3"/>
</g>
<g style="mix-blend-mode:multiply">
<path d="M28.97 47.36C28.97 45.49 30.49 43.98 32.35 43.98C34.21 43.98 35.73 45.5 35.73 47.36C35.73 49.22 34.21 50.74 32.35 50.74C30.49 50.74 28.97 49.22 28.97 47.36ZM34.87 47.36C34.87 45.97 33.74 44.84 32.35 44.84C30.96 44.84 29.83 45.97 29.83 47.36C29.83 48.75 30.96 49.88 32.35 49.88C33.74 49.88 34.87 48.75 34.87 47.36Z" fill="#83BFB3"/>
</g>
<g style="mix-blend-mode:multiply">
<path d="M28.97 91.3302C28.97 89.4602 30.49 87.9502 32.35 87.9502C34.21 87.9502 35.73 89.4702 35.73 91.3302C35.73 93.1902 34.21 94.7102 32.35 94.7102C30.49 94.7102 28.97 93.1902 28.97 91.3302ZM34.87 91.3302C34.87 89.9402 33.74 88.8102 32.35 88.8102C30.96 88.8102 29.83 89.9402 29.83 91.3302C29.83 92.7202 30.96 93.8502 32.35 93.8502C33.74 93.8502 34.87 92.7202 34.87 91.3302Z" fill="#83BFB3"/>
</g>
<g style="mix-blend-mode:multiply">
<path d="M28.97 157.29C28.97 155.42 30.49 153.91 32.35 153.91C34.21 153.91 35.73 155.43 35.73 157.29C35.73 159.15 34.21 160.67 32.35 160.67C30.49 160.67 28.97 159.15 28.97 157.29ZM34.87 157.29C34.87 155.9 33.74 154.77 32.35 154.77C30.96 154.77 29.83 155.9 29.83 157.29C29.83 158.68 30.96 159.81 32.35 159.81C33.74 159.81 34.87 158.68 34.87 157.29Z" fill="#83BFB3"/>
</g>
<g style="mix-blend-mode:multiply">
<path d="M28.97 135.3C28.97 133.43 30.49 131.92 32.35 131.92C34.21 131.92 35.73 133.44 35.73 135.3C35.73 137.16 34.21 138.68 32.35 138.68C30.49 138.68 28.97 137.16 28.97 135.3ZM34.87 135.3C34.87 133.91 33.74 132.78 32.35 132.78C30.96 132.78 29.83 133.91 29.83 135.3C29.83 136.69 30.96 137.82 32.35 137.82C33.74 137.82 34.87 136.69 34.87 135.3Z" fill="#83BFB3"/>
</g>
<g style="mix-blend-mode:multiply">
<path d="M14.49 25.3702C14.49 23.5002 16.01 21.9902 17.87 21.9902C19.73 21.9902 21.25 23.5102 21.25 25.3702C21.25 27.2302 19.73 28.7502 17.87 28.7502C16.01 28.7502 14.49 27.2302 14.49 25.3702ZM20.39 25.3702C20.39 23.9802 19.26 22.8502 17.87 22.8502C16.48 22.8502 15.35 23.9802 15.35 25.3702C15.35 26.7602 16.48 27.8902 17.87 27.8902C19.26 27.8902 20.39 26.7602 20.39 25.3702Z" fill="#83BFB3"/>
</g>
<g style="mix-blend-mode:multiply">
<path d="M14.49 69.34C14.49 67.47 16.01 65.96 17.87 65.96C19.73 65.96 21.25 67.48 21.25 69.34C21.25 71.2 19.73 72.72 17.87 72.72C16.01 72.72 14.49 71.2 14.49 69.34ZM20.39 69.34C20.39 67.95 19.26 66.82 17.87 66.82C16.48 66.82 15.35 67.95 15.35 69.34C15.35 70.73 16.48 71.86 17.87 71.86C19.26 71.86 20.39 70.73 20.39 69.34Z" fill="#83BFB3"/>
</g>
<g style="mix-blend-mode:multiply">
<path d="M14.49 113.32C14.49 111.45 16.01 109.94 17.87 109.94C19.73 109.94 21.25 111.46 21.25 113.32C21.25 115.18 19.73 116.7 17.87 116.7C16.01 116.7 14.49 115.18 14.49 113.32ZM20.39 113.32C20.39 111.93 19.26 110.8 17.87 110.8C16.48 110.8 15.35 111.93 15.35 113.32C15.35 114.71 16.48 115.84 17.87 115.84C19.26 115.84 20.39 114.71 20.39 113.32Z" fill="#83BFB3"/>
</g>
<g style="mix-blend-mode:multiply">
<path d="M14.49 179.28C14.49 177.41 16.01 175.9 17.87 175.9C19.73 175.9 21.25 177.42 21.25 179.28C21.25 181.14 19.73 182.66 17.87 182.66C16.01 182.66 14.49 181.14 14.49 179.28ZM20.39 179.28C20.39 177.89 19.26 176.76 17.87 176.76C16.48 176.76 15.35 177.89 15.35 179.28C15.35 180.67 16.48 181.8 17.87 181.8C19.26 181.8 20.39 180.67 20.39 179.28Z" fill="#83BFB3"/>
</g>
<g style="mix-blend-mode:multiply">
<path d="M14.49 3.38C14.49 1.51 16.01 0 17.87 0C19.73 0 21.25 1.52 21.25 3.38C21.25 5.24 19.73 6.76 17.87 6.76C16.01 6.76 14.49 5.24 14.49 3.38ZM20.39 3.38C20.39 1.99 19.26 0.86 17.87 0.86C16.48 0.86 15.35 1.99 15.35 3.38C15.35 4.77 16.48 5.9 17.87 5.9C19.26 5.9 20.39 4.77 20.39 3.38Z" fill="#83BFB3"/>
</g>
<g style="mix-blend-mode:multiply">
<path d="M14.49 47.36C14.49 45.49 16.01 43.98 17.87 43.98C19.73 43.98 21.25 45.5 21.25 47.36C21.25 49.22 19.73 50.74 17.87 50.74C16.01 50.74 14.49 49.22 14.49 47.36ZM20.39 47.36C20.39 45.97 19.26 44.84 17.87 44.84C16.48 44.84 15.35 45.97 15.35 47.36C15.35 48.75 16.48 49.88 17.87 49.88C19.26 49.88 20.39 48.75 20.39 47.36Z" fill="#83BFB3"/>
</g>
<g style="mix-blend-mode:multiply">
<path d="M14.49 91.3302C14.49 89.4602 16.01 87.9502 17.87 87.9502C19.73 87.9502 21.25 89.4702 21.25 91.3302C21.25 93.1902 19.73 94.7102 17.87 94.7102C16.01 94.7102 14.49 93.1902 14.49 91.3302ZM20.39 91.3302C20.39 89.9402 19.26 88.8102 17.87 88.8102C16.48 88.8102 15.35 89.9402 15.35 91.3302C15.35 92.7202 16.48 93.8502 17.87 93.8502C19.26 93.8502 20.39 92.7202 20.39 91.3302Z" fill="#83BFB3"/>
</g>
<g style="mix-blend-mode:multiply">
<path d="M14.49 157.29C14.49 155.42 16.01 153.91 17.87 153.91C19.73 153.91 21.25 155.43 21.25 157.29C21.25 159.15 19.73 160.67 17.87 160.67C16.01 160.67 14.49 159.15 14.49 157.29ZM20.39 157.29C20.39 155.9 19.26 154.77 17.87 154.77C16.48 154.77 15.35 155.9 15.35 157.29C15.35 158.68 16.48 159.81 17.87 159.81C19.26 159.81 20.39 158.68 20.39 157.29Z" fill="#83BFB3"/>
</g>
<g style="mix-blend-mode:multiply">
<path d="M14.49 135.3C14.49 133.43 16.01 131.92 17.87 131.92C19.73 131.92 21.25 133.44 21.25 135.3C21.25 137.16 19.73 138.68 17.87 138.68C16.01 138.68 14.49 137.16 14.49 135.3ZM20.39 135.3C20.39 133.91 19.26 132.78 17.87 132.78C16.48 132.78 15.35 133.91 15.35 135.3C15.35 136.69 16.48 137.82 17.87 137.82C19.26 137.82 20.39 136.69 20.39 135.3Z" fill="#83BFB3"/>
</g>
<g style="mix-blend-mode:multiply">
<path d="M0 25.3702C0 23.5002 1.52 21.9902 3.38 21.9902C5.24 21.9902 6.76 23.5102 6.76 25.3702C6.76 27.2302 5.24 28.7502 3.38 28.7502C1.52 28.7502 0 27.2302 0 25.3702ZM5.9 25.3702C5.9 23.9802 4.77 22.8502 3.38 22.8502C1.99 22.8502 0.86 23.9802 0.86 25.3702C0.86 26.7602 1.99 27.8902 3.38 27.8902C4.77 27.8902 5.9 26.7602 5.9 25.3702Z" fill="#83BFB3"/>
</g>
<g style="mix-blend-mode:multiply">
<path d="M0 69.34C0 67.47 1.52 65.96 3.38 65.96C5.24 65.96 6.76 67.48 6.76 69.34C6.76 71.2 5.24 72.72 3.38 72.72C1.52 72.72 0 71.2 0 69.34ZM5.9 69.34C5.9 67.95 4.77 66.82 3.38 66.82C1.99 66.82 0.86 67.95 0.86 69.34C0.86 70.73 1.99 71.86 3.38 71.86C4.77 71.86 5.9 70.73 5.9 69.34Z" fill="#83BFB3"/>
</g>
<g style="mix-blend-mode:multiply">
<path d="M0 113.32C0 111.45 1.52 109.94 3.38 109.94C5.24 109.94 6.76 111.46 6.76 113.32C6.76 115.18 5.24 116.7 3.38 116.7C1.52 116.7 0 115.18 0 113.32ZM5.9 113.32C5.9 111.93 4.77 110.8 3.38 110.8C1.99 110.8 0.86 111.93 0.86 113.32C0.86 114.71 1.99 115.84 3.38 115.84C4.77 115.84 5.9 114.71 5.9 113.32Z" fill="#83BFB3"/>
</g>
<g style="mix-blend-mode:multiply">
<path d="M0 179.28C0 177.41 1.52 175.9 3.38 175.9C5.24 175.9 6.76 177.42 6.76 179.28C6.76 181.14 5.24 182.66 3.38 182.66C1.52 182.66 0 181.14 0 179.28ZM5.9 179.28C5.9 177.89 4.77 176.76 3.38 176.76C1.99 176.76 0.86 177.89 0.86 179.28C0.86 180.67 1.99 181.8 3.38 181.8C4.77 181.8 5.9 180.67 5.9 179.28Z" fill="#83BFB3"/>
</g>
<g style="mix-blend-mode:multiply">
<path d="M0 3.38C0 1.52 1.52 0 3.38 0C5.24 0 6.76 1.52 6.76 3.38C6.76 5.24 5.24 6.76 3.38 6.76C1.52 6.76 0 5.25 0 3.38ZM5.9 3.38C5.9 1.99 4.77 0.86 3.38 0.86C1.99 0.86 0.86 1.99 0.86 3.38C0.86 4.77 1.99 5.9 3.38 5.9C4.77 5.9 5.9 4.77 5.9 3.38Z" fill="#83BFB3"/>
</g>
<g style="mix-blend-mode:multiply">
<path d="M0 47.36C0 45.49 1.52 43.98 3.38 43.98C5.24 43.98 6.76 45.5 6.76 47.36C6.76 49.22 5.24 50.74 3.38 50.74C1.52 50.74 0 49.22 0 47.36ZM5.9 47.36C5.9 45.97 4.77 44.84 3.38 44.84C1.99 44.84 0.86 45.97 0.86 47.36C0.86 48.75 1.99 49.88 3.38 49.88C4.77 49.88 5.9 48.75 5.9 47.36Z" fill="#83BFB3"/>
</g>
<g style="mix-blend-mode:multiply">
<path d="M0 91.3302C0 89.4702 1.52 87.9502 3.38 87.9502C5.24 87.9502 6.76 89.4702 6.76 91.3302C6.76 93.1902 5.24 94.7102 3.38 94.7102C1.52 94.7102 0 93.1902 0 91.3302ZM5.9 91.3302C5.9 89.9402 4.77 88.8102 3.38 88.8102C1.99 88.8102 0.86 89.9402 0.86 91.3302C0.86 92.7202 1.99 93.8502 3.38 93.8502C4.77 93.8502 5.9 92.7202 5.9 91.3302Z" fill="#83BFB3"/>
</g>
<g style="mix-blend-mode:multiply">
<path d="M0 157.29C0 155.42 1.52 153.91 3.38 153.91C5.24 153.91 6.76 155.43 6.76 157.29C6.76 159.15 5.24 160.67 3.38 160.67C1.52 160.67 0 159.16 0 157.29ZM5.9 157.29C5.9 155.9 4.77 154.77 3.38 154.77C1.99 154.77 0.86 155.9 0.86 157.29C0.86 158.68 1.99 159.81 3.38 159.81C4.77 159.81 5.9 158.68 5.9 157.29Z" fill="#83BFB3"/>
</g>
<g style="mix-blend-mode:multiply">
<path d="M0 135.3C0 134.4 0.35 133.55 0.99 132.91C1.63 132.27 2.48 131.92 3.38 131.92C5.25 131.92 6.76 133.44 6.76 135.3C6.76 137.16 5.24 138.68 3.38 138.68C1.52 138.68 0 137.17 0 135.3ZM5.9 135.3C5.9 133.91 4.77 132.78 3.38 132.78C2.71 132.78 2.08 133.04 1.6 133.52C1.12 134 0.86 134.63 0.86 135.3C0.86 136.69 1.99 137.82 3.38 137.82C4.77 137.82 5.9 136.69 5.9 135.3Z" fill="#83BFB3"/>
</g>
</svg>
