<svg width="208" height="88" viewBox="0 0 208 88" fill="none" xmlns="http://www.w3.org/2000/svg">
<path d="M206.03 20.9451C205.01 20.9451 204.19 20.1151 204.19 19.1051C204.19 18.0951 205.02 17.2651 206.03 17.2651C207.04 17.2651 207.87 18.0951 207.87 19.1051C207.87 20.1151 207.04 20.9451 206.03 20.9451Z" fill="#83BFB3"/>
<path d="M206.03 53.9349C205.01 53.9349 204.19 53.1049 204.19 52.0949C204.19 51.0849 205.02 50.2549 206.03 50.2549C207.04 50.2549 207.87 51.0849 207.87 52.0949C207.87 53.1049 207.04 53.9349 206.03 53.9349Z" fill="#83BFB3"/>
<path d="M206.03 86.9251C205.01 86.9251 204.19 86.0951 204.19 85.0851C204.19 84.0751 205.02 83.2451 206.03 83.2451C207.04 83.2451 207.87 84.0751 207.87 85.0851C207.87 86.0951 207.04 86.9251 206.03 86.9251Z" fill="#83BFB3"/>
<path d="M206.03 4.4549C205.01 4.4549 204.19 3.6249 204.19 2.6149C204.19 1.6049 205.02 0.774902 206.03 0.774902C207.04 0.774902 207.87 1.6049 207.87 2.6149C207.87 3.6249 207.04 4.4549 206.03 4.4549Z" fill="#83BFB3"/>
<path d="M206.03 37.4451C205.01 37.4451 204.19 36.6151 204.19 35.6051C204.19 34.5851 205.02 33.7651 206.03 33.7651C207.04 33.7651 207.87 34.5951 207.87 35.6051C207.87 36.6151 207.04 37.4451 206.03 37.4451Z" fill="#83BFB3"/>
<path d="M206.03 70.4251C205.01 70.4251 204.19 69.5951 204.19 68.5851C204.19 67.5751 205.02 66.7451 206.03 66.7451C207.04 66.7451 207.87 67.5751 207.87 68.5851C207.87 69.5951 207.04 70.4251 206.03 70.4251Z" fill="#83BFB3"/>
<path d="M190.38 20.9446C191.396 20.9446 192.22 20.1209 192.22 19.1046C192.22 18.0884 191.396 17.2646 190.38 17.2646C189.364 17.2646 188.54 18.0884 188.54 19.1046C188.54 20.1209 189.364 20.9446 190.38 20.9446Z" fill="#83BFB3"/>
<path d="M190.38 53.9349C189.36 53.9349 188.54 53.1049 188.54 52.0949C188.54 51.0849 189.37 50.2549 190.38 50.2549C191.4 50.2549 192.22 51.0849 192.22 52.0949C192.22 53.1149 191.39 53.9349 190.38 53.9349Z" fill="#83BFB3"/>
<path d="M190.38 86.9246C189.36 86.9246 188.54 86.0946 188.54 85.0846C188.54 84.0746 189.37 83.2446 190.38 83.2446C191.39 83.2446 192.22 84.0746 192.22 85.0846C192.22 86.0946 191.39 86.9246 190.38 86.9246Z" fill="#83BFB3"/>
<path d="M190.38 4.45465C189.36 4.45465 188.54 3.62465 188.54 2.61465C188.54 1.60465 189.36 0.764648 190.38 0.764648C191.4 0.764648 192.22 1.59465 192.22 2.60465C192.22 3.62465 191.39 4.44465 190.38 4.44465V4.45465Z" fill="#83BFB3"/>
<path d="M190.38 37.4446C189.36 37.4446 188.54 36.6146 188.54 35.6046C188.54 34.5846 189.37 33.7646 190.38 33.7646C191.39 33.7646 192.22 34.5946 192.22 35.6046C192.22 36.6146 191.39 37.4446 190.38 37.4446Z" fill="#83BFB3"/>
<path d="M190.38 70.4246C189.36 70.4246 188.54 69.5946 188.54 68.5846C188.54 67.5746 189.37 66.7446 190.38 66.7446C191.39 66.7446 192.22 67.5746 192.22 68.5846C192.22 69.5946 191.39 70.4246 190.38 70.4246Z" fill="#83BFB3"/>
<path d="M174.73 20.9446C173.71 20.9446 172.89 20.1146 172.89 19.1046C172.89 18.0946 173.72 17.2646 174.73 17.2646C175.75 17.2646 176.57 18.0946 176.57 19.1046C176.57 20.1246 175.74 20.9446 174.73 20.9446Z" fill="#83BFB3"/>
<path d="M174.73 53.9349C173.71 53.9349 172.89 53.1049 172.89 52.0949C172.89 51.0849 173.72 50.2549 174.73 50.2549C175.74 50.2549 176.57 51.0849 176.57 52.0949C176.57 53.1049 175.74 53.9349 174.73 53.9349Z" fill="#83BFB3"/>
<path d="M176.033 86.3768C176.751 85.6582 176.751 84.4932 176.033 83.7746C175.314 83.056 174.149 83.056 173.43 83.7746C172.712 84.4932 172.712 85.6582 173.43 86.3768C174.149 87.0953 175.314 87.0953 176.033 86.3768Z" fill="#83BFB3"/>
<path d="M176.027 3.91143C176.746 3.19287 176.746 2.02785 176.027 1.30928C175.309 0.590716 174.144 0.590713 173.425 1.30928C172.707 2.02784 172.707 3.19286 173.425 3.91143C174.144 4.62999 175.309 4.63 176.027 3.91143Z" fill="#83BFB3"/>
<path d="M174.73 37.4446C173.71 37.4446 172.89 36.6146 172.89 35.6046C172.89 34.5946 173.72 33.7646 174.73 33.7646C175.74 33.7646 176.57 34.5946 176.57 35.6046C176.57 36.6146 175.74 37.4446 174.73 37.4446Z" fill="#83BFB3"/>
<path d="M174.73 70.4246C173.71 70.4246 172.89 69.5946 172.89 68.5846C172.89 67.5746 173.72 66.7446 174.73 66.7446C175.74 66.7446 176.57 67.5746 176.57 68.5846C176.57 69.5946 175.74 70.4246 174.73 70.4246Z" fill="#83BFB3"/>
<path d="M159.08 20.9446C158.06 20.9446 157.24 20.1146 157.24 19.1046C157.24 18.0946 158.07 17.2646 159.08 17.2646C160.09 17.2646 160.92 18.0946 160.92 19.1046C160.92 20.1146 160.09 20.9446 159.08 20.9446Z" fill="#83BFB3"/>
<path d="M159.08 53.9349C158.06 53.9349 157.24 53.1049 157.24 52.0949C157.24 51.0849 158.07 50.2549 159.08 50.2549C160.09 50.2549 160.92 51.0849 160.92 52.0949C160.92 53.1049 160.09 53.9349 159.08 53.9349Z" fill="#83BFB3"/>
<path d="M159.08 86.9246C158.06 86.9246 157.24 86.0946 157.24 85.0846C157.24 84.0746 158.07 83.2446 159.08 83.2446C160.09 83.2446 160.92 84.0746 160.92 85.0846C160.92 86.1046 160.09 86.9246 159.08 86.9246Z" fill="#83BFB3"/>
<path d="M159.08 4.45465C158.06 4.45465 157.24 3.62465 157.24 2.61465C157.24 1.60465 158.06 0.764648 159.08 0.764648C160.1 0.764648 160.92 1.59465 160.92 2.60465C160.92 3.61465 160.09 4.44465 159.08 4.44465V4.45465Z" fill="#83BFB3"/>
<path d="M159.08 37.4446C158.06 37.4446 157.24 36.6146 157.24 35.6046C157.24 34.5946 158.07 33.7646 159.08 33.7646C160.09 33.7646 160.92 34.5946 160.92 35.6046C160.92 36.6146 160.09 37.4446 159.08 37.4446Z" fill="#83BFB3"/>
<path d="M159.08 70.4246C158.06 70.4246 157.24 69.5946 157.24 68.5846C157.24 67.5746 158.07 66.7446 159.08 66.7446C160.09 66.7446 160.92 67.5746 160.92 68.5846C160.92 69.5946 160.09 70.4246 159.08 70.4246Z" fill="#83BFB3"/>
<path d="M143.44 20.9446C142.42 20.9446 141.6 20.1146 141.6 19.1046C141.6 18.0946 142.43 17.2646 143.44 17.2646C144.45 17.2646 145.28 18.0946 145.28 19.1046C145.28 20.1146 144.45 20.9446 143.44 20.9446Z" fill="#83BFB3"/>
<path d="M143.44 53.9349C142.42 53.9349 141.6 53.1049 141.6 52.0949C141.6 51.0749 142.43 50.2549 143.44 50.2549C144.45 50.2549 145.28 51.0849 145.28 52.0949C145.28 53.1049 144.45 53.9349 143.44 53.9349Z" fill="#83BFB3"/>
<path d="M144.737 86.3719C145.456 85.6533 145.456 84.4883 144.737 83.7697C144.019 83.0512 142.854 83.0512 142.135 83.7697C141.417 84.4883 141.417 85.6533 142.135 86.3719C142.854 87.0904 144.019 87.0904 144.737 86.3719Z" fill="#83BFB3"/>
<path d="M143.44 4.45465C142.42 4.45465 141.6 3.62465 141.6 2.61465C141.6 1.60465 142.42 0.764648 143.44 0.764648C144.46 0.764648 145.28 1.59465 145.28 2.60465C145.28 3.61465 144.45 4.44465 143.44 4.44465V4.45465Z" fill="#83BFB3"/>
<path d="M143.44 37.4446C142.42 37.4446 141.6 36.6146 141.6 35.6046C141.6 34.5946 142.43 33.7646 143.44 33.7646C144.45 33.7646 145.28 34.5946 145.28 35.6046C145.28 36.6146 144.45 37.4446 143.44 37.4446Z" fill="#83BFB3"/>
<path d="M143.44 70.4246C142.42 70.4246 141.6 69.5946 141.6 68.5846C141.6 67.5746 142.43 66.7446 143.44 66.7446C144.46 66.7446 145.28 67.5746 145.28 68.5846C145.28 69.5946 144.45 70.4246 143.44 70.4246Z" fill="#83BFB3"/>
<path d="M127.79 20.9446C126.77 20.9446 125.95 20.1146 125.95 19.1046C125.95 18.0846 126.78 17.2646 127.79 17.2646C128.81 17.2646 129.63 18.0946 129.63 19.1046C129.63 20.1246 128.8 20.9446 127.79 20.9446Z" fill="#83BFB3"/>
<path d="M127.79 53.9349C126.77 53.9349 125.95 53.1049 125.95 52.0949C125.95 51.0849 126.78 50.2549 127.79 50.2549C128.8 50.2549 129.63 51.0849 129.63 52.0949C129.63 53.1049 128.8 53.9349 127.79 53.9349Z" fill="#83BFB3"/>
<path d="M127.79 86.9246C126.77 86.9246 125.95 86.0946 125.95 85.0846C125.95 84.0746 126.78 83.2446 127.79 83.2446C128.8 83.2446 129.63 84.0746 129.63 85.0846C129.63 86.0946 128.8 86.9246 127.79 86.9246Z" fill="#83BFB3"/>
<path d="M129.086 3.90313C129.805 3.18457 129.805 2.01954 129.086 1.30098C128.367 0.582415 127.202 0.582412 126.484 1.30098C125.765 2.01954 125.765 3.18456 126.484 3.90313C127.202 4.62169 128.367 4.62169 129.086 3.90313Z" fill="#83BFB3"/>
<path d="M127.79 37.4446C126.77 37.4446 125.95 36.6146 125.95 35.6046C125.95 34.5946 126.78 33.7646 127.79 33.7646C128.8 33.7646 129.63 34.5946 129.63 35.6046C129.63 36.6146 128.8 37.4446 127.79 37.4446Z" fill="#83BFB3"/>
<path d="M127.79 70.4246C126.77 70.4246 125.95 69.5946 125.95 68.5846C125.95 67.5746 126.78 66.7446 127.79 66.7446C128.8 66.7446 129.63 67.5746 129.63 68.5846C129.63 69.5946 128.8 70.4246 127.79 70.4246Z" fill="#83BFB3"/>
<path d="M113.965 19.3974C114.128 18.3944 113.447 17.4492 112.444 17.2864C111.441 17.1236 110.496 17.8047 110.333 18.8078C110.17 19.8109 110.851 20.756 111.854 20.9188C112.857 21.0817 113.802 20.4005 113.965 19.3974Z" fill="#83BFB3"/>
<path d="M112.14 53.9349C111.12 53.9349 110.3 53.1049 110.3 52.0949C110.3 51.0749 111.13 50.2549 112.14 50.2549C113.16 50.2549 113.98 51.0849 113.98 52.0949C113.98 53.1049 113.15 53.9349 112.14 53.9349Z" fill="#83BFB3"/>
<path d="M112.14 86.9251C111.12 86.9251 110.3 86.0951 110.3 85.0851C110.3 84.0751 111.13 83.2451 112.14 83.2451C113.15 83.2451 113.98 84.0751 113.98 85.0851C113.98 86.0951 113.15 86.9251 112.14 86.9251Z" fill="#83BFB3"/>
<path d="M112.14 4.4549C111.12 4.4549 110.3 3.6249 110.3 2.6149C110.3 1.6049 111.13 0.774902 112.14 0.774902C113.15 0.774902 113.98 1.6049 113.98 2.6149C113.98 3.6249 113.15 4.4549 112.14 4.4549Z" fill="#83BFB3"/>
<path d="M113.962 35.8891C114.125 34.8861 113.444 33.9409 112.441 33.7781C111.438 33.6153 110.493 34.2964 110.33 35.2995C110.167 36.3026 110.848 37.2477 111.851 37.4105C112.854 37.5734 113.799 36.8922 113.962 35.8891Z" fill="#83BFB3"/>
<path d="M112.14 70.4251C111.12 70.4251 110.3 69.5951 110.3 68.5851C110.3 67.5651 111.13 66.7451 112.14 66.7451C113.16 66.7451 113.98 67.5751 113.98 68.5851C113.98 69.6051 113.15 70.4251 112.14 70.4251Z" fill="#83BFB3"/>
<path d="M96.49 20.9451C95.47 20.9451 94.65 20.1151 94.65 19.1051C94.65 18.0851 95.48 17.2651 96.49 17.2651C97.5 17.2651 98.33 18.0951 98.33 19.1051C98.33 20.1251 97.5 20.9451 96.49 20.9451Z" fill="#83BFB3"/>
<path d="M96.49 53.9349C95.47 53.9349 94.65 53.1049 94.65 52.0949C94.65 51.0849 95.48 50.2549 96.49 50.2549C97.5 50.2549 98.33 51.0849 98.33 52.0949C98.33 53.1049 97.5 53.9349 96.49 53.9349Z" fill="#83BFB3"/>
<path d="M96.49 86.9251C95.47 86.9251 94.65 86.0951 94.65 85.0851C94.65 84.0651 95.48 83.2451 96.49 83.2451C97.51 83.2451 98.33 84.0751 98.33 85.0851C98.33 86.0951 97.5 86.9251 96.49 86.9251Z" fill="#83BFB3"/>
<path d="M96.49 4.4549C95.47 4.4549 94.65 3.6249 94.65 2.6149C94.65 1.6049 95.48 0.774902 96.49 0.774902C97.5 0.774902 98.33 1.6049 98.33 2.6149C98.33 3.6249 97.5 4.4549 96.49 4.4549Z" fill="#83BFB3"/>
<path d="M96.49 37.4451C95.47 37.4451 94.65 36.6151 94.65 35.6051C94.65 34.5951 95.48 33.7651 96.49 33.7651C97.51 33.7651 98.33 34.5951 98.33 35.6051C98.33 36.6251 97.5 37.4451 96.49 37.4451Z" fill="#83BFB3"/>
<path d="M96.49 70.4251C95.47 70.4251 94.65 69.5951 94.65 68.5851C94.65 67.5751 95.48 66.7451 96.49 66.7451C97.51 66.7451 98.33 67.5751 98.33 68.5851C98.33 69.6051 97.5 70.4251 96.49 70.4251Z" fill="#83BFB3"/>
<path d="M80.84 20.9446C79.82 20.9446 79 20.1146 79 19.1046C79 18.0946 79.83 17.2646 80.84 17.2646C81.86 17.2646 82.68 18.0946 82.68 19.1046C82.68 20.1146 81.85 20.9446 80.84 20.9446Z" fill="#83BFB3"/>
<path d="M80.84 53.9349C79.82 53.9349 79 53.1049 79 52.0949C79 51.0849 79.83 50.2549 80.84 50.2549C81.85 50.2549 82.68 51.0849 82.68 52.0949C82.68 53.1049 81.85 53.9349 80.84 53.9349Z" fill="#83BFB3"/>
<path d="M80.84 86.9246C79.82 86.9246 79 86.0946 79 85.0846C79 84.0746 79.83 83.2446 80.84 83.2446C81.85 83.2446 82.68 84.0746 82.68 85.0846C82.68 86.0946 81.85 86.9246 80.84 86.9246Z" fill="#83BFB3"/>
<path d="M80.84 4.45465C79.82 4.45465 79 3.62465 79 2.61465C79 1.60465 79.83 0.764648 80.84 0.764648C81.86 0.764648 82.68 1.59465 82.68 2.60465C82.68 3.62465 81.85 4.44465 80.84 4.44465V4.45465Z" fill="#83BFB3"/>
<path d="M80.84 37.4446C79.82 37.4446 79 36.6146 79 35.6046C79 34.5946 79.83 33.7646 80.84 33.7646C81.85 33.7646 82.68 34.5946 82.68 35.6046C82.68 36.6146 81.85 37.4446 80.84 37.4446Z" fill="#83BFB3"/>
<path d="M80.84 70.4246C79.82 70.4246 79 69.5946 79 68.5846C79 67.5746 79.83 66.7446 80.84 66.7446C81.85 66.7446 82.68 67.5746 82.68 68.5846C82.68 69.5946 81.85 70.4246 80.84 70.4246Z" fill="#83BFB3"/>
<path d="M65.2 20.9446C66.2162 20.9446 67.04 20.1209 67.04 19.1046C67.04 18.0884 66.2162 17.2646 65.2 17.2646C64.1838 17.2646 63.36 18.0884 63.36 19.1046C63.36 20.1209 64.1838 20.9446 65.2 20.9446Z" fill="#83BFB3"/>
<path d="M65.2 53.9349C64.18 53.9349 63.36 53.1049 63.36 52.0949C63.36 51.0849 64.19 50.2549 65.2 50.2549C66.21 50.2549 67.04 51.0849 67.04 52.0949C67.04 53.1049 66.21 53.9349 65.2 53.9349Z" fill="#83BFB3"/>
<path d="M65.2 86.9246C64.18 86.9246 63.36 86.0946 63.36 85.0846C63.36 84.0746 64.19 83.2446 65.2 83.2446C66.21 83.2446 67.04 84.0746 67.04 85.0846C67.04 86.0946 66.21 86.9246 65.2 86.9246Z" fill="#83BFB3"/>
<path d="M65.2 4.45465C64.18 4.45465 63.36 3.62465 63.36 2.61465C63.36 1.60465 64.18 0.764648 65.2 0.764648C66.22 0.764648 67.04 1.59465 67.04 2.60465C67.04 3.62465 66.21 4.44465 65.2 4.44465V4.45465Z" fill="#83BFB3"/>
<path d="M65.2 37.4446C64.18 37.4446 63.36 36.6146 63.36 35.6046C63.36 34.5946 64.19 33.7646 65.2 33.7646C66.21 33.7646 67.04 34.5946 67.04 35.6046C67.04 36.6246 66.21 37.4446 65.2 37.4446Z" fill="#83BFB3"/>
<path d="M65.2 70.4246C64.18 70.4246 63.36 69.5946 63.36 68.5846C63.36 67.5746 64.19 66.7446 65.2 66.7446C66.21 66.7446 67.04 67.5746 67.04 68.5846C67.04 69.5946 66.21 70.4246 65.2 70.4246Z" fill="#83BFB3"/>
<path d="M49.55 20.9451C48.53 20.9451 47.71 20.1151 47.71 19.1051C47.71 18.0951 48.54 17.2651 49.55 17.2651C50.56 17.2651 51.39 18.0951 51.39 19.1051C51.39 20.1151 50.56 20.9451 49.55 20.9451Z" fill="#83BFB3"/>
<path d="M49.55 53.9349C48.53 53.9349 47.71 53.1049 47.71 52.0949C47.71 51.0849 48.54 50.2549 49.55 50.2549C50.56 50.2549 51.39 51.0849 51.39 52.0949C51.39 53.1049 50.56 53.9349 49.55 53.9349Z" fill="#83BFB3"/>
<path d="M49.55 86.9251C48.53 86.9251 47.71 86.0951 47.71 85.0851C47.71 84.0751 48.54 83.2451 49.55 83.2451C50.56 83.2451 51.39 84.0751 51.39 85.0851C51.39 86.0951 50.56 86.9251 49.55 86.9251Z" fill="#83BFB3"/>
<path d="M49.55 4.4549C48.53 4.4549 47.71 3.6249 47.71 2.6149C47.71 1.5949 48.54 0.774902 49.55 0.774902C50.57 0.774902 51.39 1.6049 51.39 2.6149C51.39 3.6249 50.56 4.4549 49.55 4.4549Z" fill="#83BFB3"/>
<path d="M49.55 37.4451C48.53 37.4451 47.71 36.6151 47.71 35.6051C47.71 34.5851 48.54 33.7651 49.55 33.7651C50.56 33.7651 51.39 34.5951 51.39 35.6051C51.39 36.6151 50.56 37.4451 49.55 37.4451Z" fill="#83BFB3"/>
<path d="M49.55 70.4251C48.53 70.4251 47.71 69.5951 47.71 68.5851C47.71 67.5751 48.54 66.7451 49.55 66.7451C50.56 66.7451 51.39 67.5751 51.39 68.5851C51.39 69.5951 50.56 70.4251 49.55 70.4251Z" fill="#83BFB3"/>
<path d="M35.203 20.4012C35.9215 19.6826 35.9215 18.5176 35.203 17.799C34.4844 17.0805 33.3194 17.0805 32.6008 17.799C31.8823 18.5176 31.8823 19.6826 32.6008 20.4012C33.3194 21.1197 34.4844 21.1197 35.203 20.4012Z" fill="#83BFB3"/>
<path d="M33.9 53.9349C32.88 53.9349 32.06 53.1049 32.06 52.0949C32.06 51.0849 32.89 50.2549 33.9 50.2549C34.91 50.2549 35.74 51.0849 35.74 52.0949C35.74 53.1049 34.91 53.9349 33.9 53.9349Z" fill="#83BFB3"/>
<path d="M33.9 86.9251C32.88 86.9251 32.06 86.0951 32.06 85.0851C32.06 84.0751 32.89 83.2451 33.9 83.2451C34.92 83.2451 35.74 84.0751 35.74 85.0851C35.74 86.1051 34.91 86.9251 33.9 86.9251Z" fill="#83BFB3"/>
<path d="M35.1957 3.90362C35.9143 3.18505 35.9143 2.02003 35.1957 1.30146C34.4771 0.582898 33.3121 0.582898 32.5936 1.30146C31.875 2.02003 31.875 3.18505 32.5936 3.90362C33.3121 4.62218 34.4771 4.62218 35.1957 3.90362Z" fill="#83BFB3"/>
<path d="M33.9 37.4451C32.88 37.4451 32.06 36.6151 32.06 35.6051C32.06 34.5851 32.89 33.7651 33.9 33.7651C34.92 33.7651 35.74 34.5951 35.74 35.6051C35.74 36.6151 34.91 37.4451 33.9 37.4451Z" fill="#83BFB3"/>
<path d="M33.9 70.4251C32.88 70.4251 32.06 69.5951 32.06 68.5851C32.06 67.5751 32.89 66.7451 33.9 66.7451C34.91 66.7451 35.74 67.5751 35.74 68.5851C35.74 69.5951 34.91 70.4251 33.9 70.4251Z" fill="#83BFB3"/>
<path d="M18.25 20.9446C17.23 20.9446 16.41 20.1146 16.41 19.1046C16.41 18.0946 17.24 17.2646 18.25 17.2646C19.26 17.2646 20.09 18.0946 20.09 19.1046C20.09 20.1146 19.26 20.9446 18.25 20.9446Z" fill="#83BFB3"/>
<path d="M18.25 53.9349C17.23 53.9349 16.41 53.1049 16.41 52.0949C16.41 51.0849 17.24 50.2549 18.25 50.2549C19.27 50.2549 20.09 51.0849 20.09 52.0949C20.09 53.1149 19.26 53.9349 18.25 53.9349Z" fill="#83BFB3"/>
<path d="M18.25 86.9246C17.23 86.9246 16.41 86.0946 16.41 85.0846C16.41 84.0746 17.24 83.2446 18.25 83.2446C19.26 83.2446 20.09 84.0746 20.09 85.0846C20.09 86.0946 19.26 86.9246 18.25 86.9246Z" fill="#83BFB3"/>
<path d="M19.5495 3.90947C20.268 3.19091 20.268 2.02589 19.5495 1.30732C18.8309 0.588757 17.6659 0.588757 16.9473 1.30732C16.2288 2.02589 16.2288 3.19091 16.9473 3.90947C17.6659 4.62804 18.8309 4.62804 19.5495 3.90947Z" fill="#83BFB3"/>
<path d="M18.25 37.4349C19.2662 37.4349 20.09 36.6111 20.09 35.5949C20.09 34.5787 19.2662 33.7549 18.25 33.7549C17.2338 33.7549 16.41 34.5787 16.41 35.5949C16.41 36.6111 17.2338 37.4349 18.25 37.4349Z" fill="#83BFB3"/>
<path d="M18.25 70.4246C17.23 70.4246 16.41 69.5946 16.41 68.5846C16.41 67.5646 17.24 66.7446 18.25 66.7446C19.27 66.7446 20.09 67.5746 20.09 68.5846C20.09 69.5946 19.26 70.4246 18.25 70.4246Z" fill="#83BFB3"/>
<path d="M2.6 20.9451C1.58 20.9451 0.759998 20.1151 0.759998 19.1051C0.759998 18.0951 1.59 17.2651 2.6 17.2651C3.62 17.2651 4.44 18.0951 4.44 19.1051C4.44 20.1251 3.61 20.9451 2.6 20.9451Z" fill="#83BFB3"/>
<path d="M2.6 53.9349C1.58 53.9349 0.759998 53.1049 0.759998 52.0949C0.759998 51.0849 1.59 50.2549 2.6 50.2549C3.61 50.2549 4.44 51.0849 4.44 52.0949C4.44 53.1049 3.61 53.9349 2.6 53.9349Z" fill="#83BFB3"/>
<path d="M2.6 86.9251C1.58 86.9251 0.759998 86.0951 0.759998 85.0851C0.759998 84.0751 1.59 83.2451 2.6 83.2451C3.61 83.2451 4.44 84.0751 4.44 85.0851C4.44 86.0951 3.61 86.9251 2.6 86.9251Z" fill="#83BFB3"/>
<path d="M3.90323 3.90606C4.62179 3.18749 4.62179 2.02247 3.90323 1.3039C3.18466 0.585339 2.01964 0.585339 1.30108 1.3039C0.582512 2.02247 0.582512 3.18749 1.30108 3.90606C2.01964 4.62462 3.18466 4.62462 3.90323 3.90606Z" fill="#83BFB3"/>
<path d="M2.6 37.4451C1.58 37.4451 0.759998 36.6151 0.759998 35.6051C0.759998 34.5951 1.59 33.7651 2.6 33.7651C3.61 33.7651 4.44 34.5951 4.44 35.6051C4.44 36.6151 3.61 37.4451 2.6 37.4451Z" fill="#83BFB3"/>
<path d="M2.6 70.4251C1.58 70.4251 0.759998 69.5951 0.759998 68.5851C0.759998 67.5751 1.59 66.7451 2.6 66.7451C3.61 66.7451 4.44 67.5751 4.44 68.5851C4.44 69.5951 3.61 70.4251 2.6 70.4251Z" fill="#83BFB3"/>
</svg>
