<svg width="29" height="138" viewBox="0 0 29 138" fill="none" xmlns="http://www.w3.org/2000/svg">
<path d="M1.32 89.8501C2.05 89.8501 2.64 90.4401 2.64 91.1701C2.64 91.9001 2.05 92.4901 1.32 92.4901C0.59 92.4901 0 91.9001 0 91.1701C0 90.4401 0.59 89.8501 1.32 89.8501Z" fill="#83BFB3"/>
<path d="M1.32 74.8799C2.05 74.8799 2.64 75.4699 2.64 76.1999C2.64 76.9299 2.05 77.5199 1.32 77.5199C0.59 77.5199 0 76.9299 0 76.1999C0 75.4699 0.59 74.8799 1.32 74.8799Z" fill="#83BFB3"/>
<path d="M1.32 59.8999C2.05 59.8999 2.64 60.4899 2.64 61.2199C2.64 61.9499 2.05 62.5399 1.32 62.5399C0.59 62.5399 0 61.9499 0 61.2199C0 60.4899 0.59 59.8999 1.32 59.8999Z" fill="#83BFB3"/>
<path d="M1.32 44.9302C2.05 44.9302 2.64 45.5202 2.64 46.2502C2.64 46.9802 2.05 47.5702 1.32 47.5702C0.59 47.5702 0 46.9802 0 46.2502C0 45.5202 0.59 44.9302 1.32 44.9302Z" fill="#83BFB3"/>
<path d="M1.32 29.9502C2.05 29.9502 2.64 30.5402 2.64 31.2702C2.64 32.0002 2.05 32.5902 1.32 32.5902C0.59 32.5902 0 32.0002 0 31.2702C0 30.5402 0.59 29.9502 1.32 29.9502Z" fill="#83BFB3"/>
<path d="M14.16 89.8501C14.89 89.8501 15.48 90.4401 15.48 91.1701C15.48 91.9001 14.89 92.4901 14.16 92.4901C13.43 92.4901 12.84 91.9001 12.84 91.1701C12.84 90.4401 13.43 89.8501 14.16 89.8501Z" fill="#83BFB3"/>
<path d="M14.16 74.8799C14.89 74.8799 15.48 75.4699 15.48 76.1999C15.48 76.9299 14.89 77.5199 14.16 77.5199C13.43 77.5199 12.84 76.9299 12.84 76.1999C12.84 75.4699 13.43 74.8799 14.16 74.8799Z" fill="#83BFB3"/>
<path d="M14.16 59.8999C14.89 59.8999 15.48 60.4899 15.48 61.2199C15.48 61.9499 14.89 62.5399 14.16 62.5399C13.43 62.5399 12.84 61.9499 12.84 61.2199C12.84 60.4899 13.43 59.8999 14.16 59.8999Z" fill="#83BFB3"/>
<path d="M14.16 44.9302C14.89 44.9302 15.48 45.5202 15.48 46.2502C15.48 46.9802 14.89 47.5702 14.16 47.5702C13.43 47.5702 12.84 46.9802 12.84 46.2502C12.84 45.5202 13.43 44.9302 14.16 44.9302Z" fill="#83BFB3"/>
<path d="M14.16 29.9502C14.89 29.9502 15.48 30.5402 15.48 31.2702C15.48 32.0002 14.89 32.5902 14.16 32.5902C13.43 32.5902 12.84 32.0002 12.84 31.2702C12.84 30.5402 13.43 29.9502 14.16 29.9502Z" fill="#83BFB3"/>
<path d="M27.0099 89.8501C27.7399 89.8501 28.3299 90.4401 28.3299 91.1701C28.3299 91.9001 27.7399 92.4901 27.0099 92.4901C26.2799 92.4901 25.6899 91.9001 25.6899 91.1701C25.6899 90.4401 26.2799 89.8501 27.0099 89.8501Z" fill="#83BFB3"/>
<path d="M27.0099 74.8799C27.7399 74.8799 28.3299 75.4699 28.3299 76.1999C28.3299 76.9299 27.7399 77.5199 27.0099 77.5199C26.2799 77.5199 25.6899 76.9299 25.6899 76.1999C25.6899 75.4699 26.2799 74.8799 27.0099 74.8799Z" fill="#83BFB3"/>
<path d="M27.0099 59.8999C27.7399 59.8999 28.3299 60.4899 28.3299 61.2199C28.3299 61.9499 27.7399 62.5399 27.0099 62.5399C26.2799 62.5399 25.6899 61.9499 25.6899 61.2199C25.6899 60.4899 26.2799 59.8999 27.0099 59.8999Z" fill="#83BFB3"/>
<path d="M27.0099 44.9302C27.7399 44.9302 28.3299 45.5202 28.3299 46.2502C28.3299 46.9802 27.7399 47.5702 27.0099 47.5702C26.2799 47.5702 25.6899 46.9802 25.6899 46.2502C25.6899 45.5202 26.2799 44.9302 27.0099 44.9302Z" fill="#83BFB3"/>
<path d="M1.32 137.42C2.04902 137.42 2.64 136.829 2.64 136.1C2.64 135.371 2.04902 134.78 1.32 134.78C0.590984 134.78 0 135.371 0 136.1C0 136.829 0.590984 137.42 1.32 137.42Z" fill="#83BFB3"/>
<path d="M1.32 122.44C2.04902 122.44 2.64 121.849 2.64 121.12C2.64 120.391 2.04902 119.8 1.32 119.8C0.590984 119.8 0 120.391 0 121.12C0 121.849 0.590984 122.44 1.32 122.44Z" fill="#83BFB3"/>
<path d="M1.32 107.47C2.04902 107.47 2.64 106.879 2.64 106.15C2.64 105.421 2.04902 104.83 1.32 104.83C0.590984 104.83 0 105.421 0 106.15C0 106.879 0.590984 107.47 1.32 107.47Z" fill="#83BFB3"/>
<path d="M14.16 137.42C14.889 137.42 15.48 136.829 15.48 136.1C15.48 135.371 14.889 134.78 14.16 134.78C13.431 134.78 12.84 135.371 12.84 136.1C12.84 136.829 13.431 137.42 14.16 137.42Z" fill="#83BFB3"/>
<path d="M14.16 122.44C14.889 122.44 15.48 121.849 15.48 121.12C15.48 120.391 14.889 119.8 14.16 119.8C13.431 119.8 12.84 120.391 12.84 121.12C12.84 121.849 13.431 122.44 14.16 122.44Z" fill="#83BFB3"/>
<path d="M14.16 107.47C14.889 107.47 15.48 106.879 15.48 106.15C15.48 105.421 14.889 104.83 14.16 104.83C13.431 104.83 12.84 105.421 12.84 106.15C12.84 106.879 13.431 107.47 14.16 107.47Z" fill="#83BFB3"/>
<path d="M27.0099 134.78C27.7399 134.78 28.3299 135.37 28.3299 136.1C28.3299 136.83 27.7399 137.42 27.0099 137.42C26.2799 137.42 25.6899 136.83 25.6899 136.1C25.6899 135.37 26.2799 134.78 27.0099 134.78Z" fill="#83BFB3"/>
<path d="M27.0099 119.8C27.7399 119.8 28.3299 120.39 28.3299 121.12C28.3299 121.85 27.7399 122.44 27.0099 122.44C26.2799 122.44 25.6899 121.85 25.6899 121.12C25.6899 120.39 26.2799 119.8 27.0099 119.8Z" fill="#83BFB3"/>
<path d="M27.0099 104.83C27.7399 104.83 28.3299 105.42 28.3299 106.15C28.3299 106.88 27.7399 107.47 27.0099 107.47C26.2799 107.47 25.6899 106.88 25.6899 106.15C25.6899 105.42 26.2799 104.83 27.0099 104.83Z" fill="#83BFB3"/>
<path d="M27.0099 29.9502C27.7399 29.9502 28.3299 30.5402 28.3299 31.2702C28.3299 32.0002 27.7399 32.5902 27.0099 32.5902C26.2799 32.5902 25.6899 32.0002 25.6899 31.2702C25.6899 30.5402 26.2799 29.9502 27.0099 29.9502Z" fill="#83BFB3"/>
<path d="M1.32 14.98C2.05 14.98 2.64 15.57 2.64 16.3C2.64 17.03 2.05 17.62 1.32 17.62C0.59 17.62 0 17.03 0 16.3C0 15.57 0.59 14.98 1.32 14.98Z" fill="#83BFB3"/>
<path d="M1.32 0C2.05 0 2.64 0.59 2.64 1.32C2.64 2.05 2.05 2.64 1.32 2.64C0.59 2.64 0 2.05 0 1.32C0 0.59 0.59 0 1.32 0Z" fill="#83BFB3"/>
<path d="M14.16 14.98C14.89 14.98 15.48 15.57 15.48 16.3C15.48 17.03 14.89 17.62 14.16 17.62C13.43 17.62 12.84 17.03 12.84 16.3C12.84 15.57 13.43 14.98 14.16 14.98Z" fill="#83BFB3"/>
<path d="M14.16 0C14.89 0 15.48 0.59 15.48 1.32C15.48 2.05 14.89 2.64 14.16 2.64C13.43 2.64 12.84 2.05 12.84 1.32C12.84 0.59 13.43 0 14.16 0Z" fill="#83BFB3"/>
<path d="M27.0099 14.98C27.7399 14.98 28.3299 15.57 28.3299 16.3C28.3299 17.03 27.7399 17.62 27.0099 17.62C26.2799 17.62 25.6899 17.03 25.6899 16.3C25.6899 15.57 26.2799 14.98 27.0099 14.98Z" fill="#83BFB3"/>
<path d="M27.0099 0C27.7399 0 28.3299 0.59 28.3299 1.32C28.3299 2.05 27.7399 2.64 27.0099 2.64C26.2799 2.64 25.6899 2.05 25.6899 1.32C25.6899 0.59 26.2799 0 27.0099 0Z" fill="#83BFB3"/>
</svg>
